<?xml version="1.0" standalone="no"?>
<!DOCTYPE svg PUBLIC "-//W3C//DTD SVG 20010904//EN"
 "http://www.w3.org/TR/2001/REC-SVG-20010904/DTD/svg10.dtd">
<svg version="1.0" xmlns="http://www.w3.org/2000/svg"
 width="186.000000pt" height="120.000000pt" viewBox="0 0 186.000000 120.000000"
 preserveAspectRatio="xMidYMid meet">

<g transform="translate(0.000000,120.000000) scale(0.100000,-0.100000)"
fill="#000000" stroke="none">
<path d="M0 600 l0 -600 930 0 930 0 0 600 0 600 -930 0 -930 0 0 -600z m1710
100 l0 -290 -627 -2 -627 -3 -76 -130 c-65 -111 -79 -130 -103 -133 l-27 -3 0
135 0 136 -70 0 -70 0 0 30 0 30 95 0 94 0 3 -107 3 -107 60 104 61 105 612 3
612 2 0 235 0 235 -740 0 -740 0 0 -170 0 -170 25 0 25 0 0 140 0 140 61 0 60
0 44 -92 44 -93 0 93 1 92 45 0 45 0 0 -171 0 -170 -51 3 -51 3 -52 113 -51
114 -3 -116 -3 -116 -99 0 -100 0 0 225 0 225 800 0 800 0 0 -290z m-117 190
c-5 -19 -23 -29 -23 -12 0 7 20 32 26 32 1 0 0 -9 -3 -20z m17 -25 c-7 -8 -20
-15 -29 -14 -11 0 -9 3 7 9 12 5 22 15 22 21 0 7 3 9 6 6 4 -4 1 -13 -6 -22z
m-760 -10 c0 -25 -1 -25 -80 -25 l-80 0 0 -45 0 -45 65 0 c63 0 65 -1 65 -25
0 -24 -2 -25 -65 -25 l-65 0 0 -50 0 -50 80 0 c79 0 80 0 80 -25 l0 -25 -130
0 -130 0 0 170 0 170 130 0 130 0 0 -25z m171 -25 c17 -27 32 -50 34 -50 2 0
17 23 35 50 31 48 34 50 77 50 l45 0 -23 -37 c-12 -21 -36 -57 -52 -81 l-29
-43 20 -32 c10 -18 35 -58 56 -89 l37 -58 -53 0 -53 0 -34 60 -35 60 -35 -60
c-35 -59 -36 -60 -79 -60 -52 0 -52 -1 12 99 25 39 46 73 46 76 0 3 -19 35
-43 72 -24 38 -47 74 -51 81 -5 9 6 12 44 12 50 0 51 -1 81 -50z m517 28 c-3
-20 -10 -23 -50 -26 l-47 -3 -3 -142 -3 -142 -47 -3 -48 -3 0 145 0 146 -50 0
c-47 0 -50 2 -50 25 l0 25 151 0 c150 0 150 0 147 -22z"/>
</g>
</svg>
